<?xml version="1.0" encoding="UTF-8"?>
<svg id="Layer_2" data-name="Layer 2" xmlns="http://www.w3.org/2000/svg" viewBox="0 0 173.27 368.39">
  <g id="Layer_1-2" data-name="Layer 1">
    <path d="m41.16,306.39c4-6,6-7,11-6,4,0,7,2,13,5,4,2,8,5,9,5s11,10,14,14c2,2,4,5,5,8,1,2,4,6,7,10,4,3,8,8,11,11s8,7,12,10c4,2,7,5,8,5,2,0,0-3-4-6-6-4-17-14-19-18-2-5-4-24-3-34,2-11,6-16,15-17,7-2,17-1,18,1,0,1,2,2,4,3,4,1,5,1,10,0,7-2,13-5,15-10,2-3,5-18,4-21-1-2-2-2-2,0,0,1-2,3-3,5-4,3-13,7-17,7s-10,3-13,7l-2,4-9,1c-6,0-10,1-12,2l-4,2,2-4c4-11,19-27,23-25,5,2,19-2,24-8,4-5,7-13,8-22,1-8,0-10-2-4-2,5-5,7-18,10-9,1-12,2-14,4-3,3-4,8-4,15,0,4-1,5-4,7-6,5-11,13-15,19-4,8-7,26-7,38,0,5-1,9-1,9-2,3-12-16-15-28-5-18-5-27,0-40,4-9,9-17,17-24,7-6,9-7,9-5h3c8,0,17-9,19-19,1-3,1-6,1-6,0,0-2,1-4,3s-5,3-6,4c-9,2-15,6-16,11,0,2-1,4-3,6l-4,3,3-5c1-4,3-7,4-8,0-1,2-4,3-6s3-4,6-6c6-3,8-6,8-18,0-10-3-19-8-23-1-2-3-3-3-3-1,0-1,2-1,6,0,5-1,7-4,15-5,10-6,16-2,21,1,2,2,4,2,5,0,2-13,25-19,34-6,9-6,10-7,8-1-1-1-5-1-9,0-8,2-28,3-33,1-2,3-9,6-16,5-19,8-25,14-30,2-2,6-5,8-7s7-5,12-7c6-4,8-4,13-4,8,1,14-1,22-5,7-4,13-12,12-16v-3l-1,3c-2,3-5,4-12,2-9-2-14-2-18,2-4,3-10,12-10,14,0,1-3,2-6,4l-6,3,3-5c2-3,4-7,5-9s3-4,4-4c12-4,13-27,1-39-1-1-2-2-3-2v7c0,6-1,8-3,13-4,7-4,12-2,19l1,4-6,9c-7,10-10,15-12,15,0,0,0-2-1-3,0-3,1-7,4-15,0-2,1-9,2-16s2-16,2-19c2-7,8-19,13-25,4-5,5-5,7-4,4,1,8,0,13-5,3-3,4-4,4-10,0-9-2-11-5-7-2,2-4,4-6,4-6,1-9,4-10,8,0,1-1,3-2,4s-1,2-1,2c2,0,2,2-1,5l-3,3v-10c0-8,0-10,2-11,4-5,0-17-7-24-8-7-18-8-12-1,2,2,3,3,3,11s0,8,3,12c2,2,4,4,5,4,2,0,3,2,3,3,1,4-1,19-4,24s-4,6-5,1c0-3-1-5-2-5v-3c0-2-6-16-9-18-1-2-3-4-4-6s-12-10-14-10c-1,0-2-1-4-2-5-5-4-19,2-25,4-4,5-7,4-12-1-4-7-14-9-14-1-1-2,0,0,2,1,4,1,7-1,12-2,4-3,10-1,12,1,2,1,3,0,6l-1,3-1-5c-1-3-1-6-1-7-1-5-3-11-6-14s-12-7-16-7c-5,0-7,2-3,3,3,1,5,4,7,10,1,6,5,10,11,10l4,1,1,6c1,3,2,8,3,11,1,2,1,5,1,6,1,2,4,7,6,9,1,0,2,2,2,3s-1,2-4,2c-4,0-5-1-7-3-1-2-3-4-5-5-3-2-16-4-22-4-10,1-15,4-7,4,5,0,11,5,14,9,2,4,6,7,9,7,1,0,5-2,8-4q6-3,12-2c11,2,18,8,22,18,1,3,2,7,3,8,0,1,1,4,2,6,0,1,1,5,1,7,2,6,2,32,1,34-2,1-4-1-7-8-2-4-5-9-7-12-3-4-3-5-3-6,3-5-7-15-16-17-5-2-26-2-27-1,0,1,2,3,5,4,4,2,6,4,10,9,8,10,7,10,22,8,3-1,3,0,8,7,2,4,4,7,4,7,0,0-2,0-3-1-2-1-5-1-7-1s-3-1-3-1c0-1-2-2-4-3-5-3-12-2-18,3-7,5-7,6,0,5,4-1,7,0,10,1,5,2,9,1,12-2,1-1,2-1,5-1,6,2,11,7,13,12,2,10,2,11-6,29-4,9-9,20-10,24-4,10-5,8-4-11,0-13,1-16,2-18,3-2,2-10,0-15-3-5-11-10-17-12-7-1-9,0-4,4,5,5,7,8,7,14,0,3,0,4,2,7,2,1,4,3,5,3,2,0,3,0,3,11,0,7-1,10-1,10-1,0-1-2-1-4,0-1-1-5-3-9-1-5-3-7-6-11-7-5-12-7-17-7h-4s1,2,4,5,4,5,5,8c0,2,1,6,2,8,2,7,10,12,14,10q2-1,4,5c3,10,4,15,2,23-1,4-2,12-3,18,0,7-1,11-1,11,0-1-1-1-2-1s-2-1-3-2c0-1-4-4-8-6-15-10-19-18-20-36-1-14-3-15-2-1v11l-3-2c-3-3-6-10-6-13,0-2,0-5,2-8,1-3,2-7,2-10v-4l3,4c5,4,10,15,10,21,0,2-1,6-2,9-3,6-1,6,2-1,2-4,3-6,2-9-1-7-5-16-8-20-4-4-9-8-10-9-1,0-1,4-1,9,0,6-1,9-2,13l-2,4,3,6c1,4,4,8,7,10,2,3,5,7,6,10,2,3,4,7,6,9,4,3,4,4,2,3-2,0-6-2-9-4-6-2-6-3-6-6,0-5-5-13-10-17-3-2-6-3-6-3l-2-2c-2-2-16-4-17-3,0,1,0,2,2,3,4,2,7,6,9,13,1,3,2,5,2,6,1,0,2,1,3,3,2,4,8,7,13,6,4-1,6-1,8,1,1,1,11,5,19,8,3,1,6,2,7,3,6,5,10,19,11,30,0,4,0,9,1,12,0,3,1,9,2,14,1,4,2,10,3,12s1,3,1,3c-1,0-6-2-12-6-7-4-13-7-14-7s-3-4-5-8c-3-6-4-9-4-14,0-8-4-15-10-21-4-5-13-11-17-12-2,0-4-1-5-2h-4c-2,0-1,1,1,2,6,4,8,8,11,19,1,6,4,13,8,16,2,2,4,3,8,3l5,1,4,7c1,4,3,7,3,8h-5c-4-1-6-1-7-3-1-1-4-2-7-3-6-2-9-1-17,3-3,2-6,2-10,2-3,0-5,1-5,1-1,2,3,6,6,10,11,10,27,10,35,0Zm100-22c3-3,4-4,7-4,2,0,6-1,9-2l6-2c1,0,2-1,3-2,2-3,2-2,1,3-1,9-4,14-12,17-4,2-10,2-12,1s-1-1,2-1c6-1,15-6,11-8,0,0-1,0-1,1-1,3-9,5-14,4-4-1-4-3,0-7Zm-9-34c2-4,6-6,17-8,4,0,9-2,11-3s4-1,4-1c0,0-1,3-2,7-3,8-8,13-16,16-6,3-8,3-10,2s-1-2,2-3l4-2c0-1,1-1,2-1,2,0,2-1,2-3q-1-1-3,0c-1,1-3,2-3,2-1,1-3,2-5,3s-3,1-4,0c-2-2-1-3,1-9Zm-9-29c3-1,6-2,6-3h2c1,0-2,6-5,10-1,2-4,4-5,4-5,2-6,2-7,2-1-1,0-2,2-4,6-5,6-8,0-3l-4,2c-2-1,4-5,11-8Zm-14-13c-2-4-2-8,3-18,2-4,4-9,4-11,0-3,1-4,2-4,0,0,2,2,3,5,1,4,2,7,2,15,0,6-1,11-1,12l-4,4-3,1,1-5c2-6,2-17,1-18-1,0-1,2-1,6,0,6-3,17-5,17l-2-4Zm42-74c6,1,14,3,15,3s1,1,0,3c-2,3-8,6-14,8s-10,2-12,2c-2-1,0-2,11-6,2-1,5-2,5-3h-1c-1,0-13,4-17,6q-3,1-3,0c2-7,12-14,16-13Zm-22-15c1-4,3-9,3-12l1-5,2,4c4,6,5,12,3,19-1,5-5,12-6,10,0,0,0-2,2-5,2-6,2-12,1-12s-1,1-2,4c0,2-1,7-3,10l-2,5-1-3c-2-6-2-8,2-15Zm5-48c1-3,3-4,7-5,3,0,6-1,6-2,1-2,3,0,3,3,0,5-3,9-7,12-3,2-4,2-7,1q-2-1,1-3c2-2,3-2,4-2,2,0,2-2,0-3,0,0-2,0-4,2-5,3-6,2-3-3Zm-13-10c0-4-3-8-5-8v1c1,1,2,4,3,6,1,3,1,5,1,5,0,1-2-1-4-3l-4-4v-9c0-5-1-9-2-9-2-3,1-1,6,2,7,5,10,14,8,21-1,3-2,3-3-2Zm-45-45c1-1,2-3,2-5,2-4,3-4,5,3,0,3,0,4-1,7-2,4-4,5-3,2,0-4-1-5-2-2q-1,5-1,0v-5Zm-12,2c-3-4-5-4-6-4-1,1,0,2,4,5,4,5,3,6-2,3-3-2-4-4-5-7s-2-7-3-8l-2-3,3,1c5,1,11,5,13,8,1,2,2,5,2,7l1,3-5-5Zm-2,45h-8l7,1c3,1,6,1,5,2-6,3-10,2-15-4-2-3-5-6-7-7l-3-2,9,1c8,1,15,3,18,7,2,1,2,2-6,2Zm25,47c-2-2-12-6-14-6s5,4,11,7l2,1-3,1h-7c-5,1-6-1-12-9-2-2-4-5-5-6-1,0-2-1-2-2,1-1,12-1,17,1,6,2,13,8,15,11,1,3,0,4-2,2Zm-7,21c-2,1-5,1-7-1-1,0-3-1-6-1l-4-1,3-2c4-2,11-2,14,0,1,0,0,0-2,1-2,0-4,0-5,1h3c5,0,7,2,4,3Zm-7,54q-2,1-5-1c-4-3-6-5-7-9-2-4-1-5,2-3,5,1,13,12,10,13Zm1-7s-1-1-3-4c-3-3-5-4-8-4-2-1-3-1-3-2s-2-4-4-6c-1-3-2-4-1-4,2,0,7,3,11,7,5,4,6,6,8,11v2Zm-48,38c-4-4-7-6-7-6-1,1,4,8,8,11,2,2,4,3,4,4s-3,1-7-1c-3-1-7-7-9-12l-4-8-2-4c0-2,8,1,13,4,5,4,9,9,11,16,1,4-1,3-7-4Zm51-66c-1,0-2-1-3-1-2-1-2,0,0,1,5,5,7,14,4,13h-3c-1,0-3-7-3-11,0-3-2-6-4-8-3-3,1-3,5,0,7,3,11,10,10,16v5c-1,1-1,0-2-3,0-4-3-12-4-12Zm-34,123c-3-5-10-13-11-12,0,0,1,2,3,5,3,4,8,11,8,12s-8-1-10-3c-3-1-7-9-10-19-1-5-2-9-3-9v-2c0-2,10,5,15,10,6,6,9,11,10,18,1,5,0,5-2,0Zm-35,25c3-1,8-3,12-4,6-3,7-4,10-3s5,2,7,3q2,2,0,3c-1,0-3,1-4,2-2,0-3,1-5,1q-1,0-1,1,0,2,6-1c3-1,7-1,8-1h3l-2,1c-1,1-2,2-2,3,0,2-4,5-9,7-2,1-5,1-7,1-4,0-12-4-17-8l-4-4,5-1Z"/>
  </g>
</svg>