<?xml version="1.0" encoding="utf-8"?>
<!-- Generator: Adobe Illustrator 27.7.0, SVG Export Plug-In . SVG Version: 6.00 Build 0)  -->
<svg version="1.1" id="Layer_2_00000090290247712573936930000008285952371299638693_"
	 xmlns="http://www.w3.org/2000/svg" xmlns:xlink="http://www.w3.org/1999/xlink" x="0px" y="0px" viewBox="0 0 241 334.89"
	 style="enable-background:new 0 0 241 334.89;" xml:space="preserve">
<style type="text/css">
	.st0{fill:#010101;stroke:#2044E0;stroke-width:5;stroke-miterlimit:10;}
</style>
<g id="Layer_1-2">
	<g id="_1">
		<path class="st0" d="M202.72,121.18c1.36-1.6,6.85-6.86,2.59-8.39c-2.09-0.75-4.47,0.1-6.59,0.27c-1.34,0.1-2.61-0.03-3.82-0.67
			c-0.79-0.42-1.54-0.93-2.32-1.36c2.32,0,3.44-2.8,3.58-4.81c0.13-1.9-0.42-3.89,0.16-5.74c0.52-1.67,1.98-2.77,3.5-3.49
			c2.15-1.02,5.86-1.5,5.86-4.59c0-3-3.08-4.46-5.48-5.26c-1.5-0.5-3.11-0.99-4.14-2.27c-0.88-1.08-1.34-2.45-1.94-3.69
			c-0.52-1.08-1.17-2.15-2.16-2.86c-1.41-1-3.08-0.76-4.68-1.13c-4.83-1.12-7.06-7.55-12.4-7.45c-1.85,0.03-3.52,0.93-5,2.14
			c-0.5-2.95-2.03-5.71-4.25-7.73c-1.2-1.09-2.57-2-4.07-2.64c-1.71-0.73-3.58-1.09-5.22-1.97c-3.04-1.63-3.49-5.05-4.75-7.94
			c-0.56-1.28-1.31-2.48-2.44-3.33c-1.23-0.91-2.73-1.28-4.15-1.76c-1.96-0.66-2.97-1.61-3.72-3.53c-0.54-1.38-1.22-2.68-2.64-3.29
			c-2.87-1.24-6.24,0.83-8.89,1.77c-4.29,1.52-8.66,0.25-12.96-0.54c-4.16-0.76-8.43-1.16-12.65-0.66
			c-7.56,0.89-15.24,5.05-17.87,12.58c-0.23,0.65,0.77,0.9,1.02,0.28c2.58-6.59,9.11-10.52,15.89-11.56
			c4.19-0.64,8.47-0.34,12.63,0.38c3.77,0.65,7.62,1.83,11.49,1.34c3.23-0.41,6.12-2.69,9.39-2.75c2.17-0.04,2.92,1.5,3.61,3.28
			c0.48,1.25,1.12,2.28,2.28,3.01c2.56,1.6,5.73,1.38,7.38,4.31c1.37,2.44,1.64,5.37,3.38,7.61c2.29,2.94,6.34,2.99,9.36,4.81
			c3.27,1.98,5.52,5.22,6.62,8.83c-1.18,1.06-2.23,2.27-3.13,3.33c-2.52,2.96-4.5,6.27-5.98,9.87c-1.5-1.44-3.81-0.86-5.53-1.8
			c-1.99-1.08-2.36-3.76-2.32-5.8c0.04-2.4,0.63-4.81,0.12-7.21c-0.92-4.36-5.57-5.99-9.55-5c-2.86,0.71-5.33,2.5-7.64,4.27
			c-2.61,2-4.9,4.23-7.14,6.62c-0.31,0.33,0.17,0.8,0.49,0.49c1.94-1.85,4.07-3.56,6.19-5.21c1.95-1.52,3.94-3.1,6.19-4.15
			c2.13-1,4.52-1.44,6.78-0.63c2.45,0.88,3.57,3.02,3.65,5.52c0.11,3.66-1.43,7.98,1.26,11.12c1.18,1.38,2.79,1.61,4.48,1.9
			c1.15,0.2,2.26,0.49,2.68,1.71c0.34,0.98,0.26,2.08,0.57,3.07c1.41,4.56,8.03,5.49,8.19,10.48c-3.81-0.07-7.69-0.18-11.15,1.56
			c-0.15-3.96-6.17-3.43-8.83-3.17c-0.89,0.08-1.77,0.19-2.65,0.32c1.32-2.04,1-4.71-0.35-6.69c-1.54-2.25-4.25-3.28-6.87-3.56
			c-1.37-0.15-2.87,0.19-4.21-0.11c-1.61-0.35-1.11-2.35-1.76-3.6c1.12-3.07-0.49-6.83-3.53-8.11c-1.86-0.78-4.45-0.1-6.03-1.47
			c-1.35-1.17-1.18-3.33-1.3-4.94c-0.1-1.38-0.29-2.9-1.34-3.91c-1.21-1.16-2.86-1.09-4.35-0.63c-1.95,0.61-3.82,1.79-5.93,1.21
			c-1.92-0.52-3.44-2.08-5.06-3.16c-3.47-2.28-7.03-1.62-10.42-0.13c0.05-0.04,0.1-0.09,0.15-0.14c2.87-2.69,6.31-5.7,6.56-9.93
			c0.09-1.54-0.41-3.27-1.9-3.99c-1.81-0.88-4.08,0.07-5.84,0.67c-5.02,1.7-9.82,4.01-14.34,6.79c-0.5-0.88-1.03-1.74-1.5-2.6
			c-1.39-2.5-2.77-5-4.18-7.49c-0.19-0.34-0.75-0.37-0.93,0c-1.65,3.27-3.32,6.57-4.93,9.9c0.01-0.03,0.02-0.06,0.02-0.09
			c0.13-3.56-5.06-2.09-6.92-3c-1.45-0.71-1.18-2.97-3.15-3.01c-1.5-0.03-2.98,1.48-4.47,0.81c-2.11-0.95-2.22-4.12-4.26-5.23
			c-2.69-1.47-4.04,1.93-4.29,3.97c-0.6,4.79-1.42,9.5-2.41,14.23c-0.96,4.58-1.92,9.17-2.51,13.81c-1.07,8.5-0.85,17.62,3.15,25.4
			c3.65,7.09,10.5,12.79,18.65,13.38c0.07,0,0.13,0,0.19-0.02c2.92,5.53,7.13,10.32,12.74,13.66c7.25,4.33,15.52,4.38,23.68,4.91
			c-8.44,17.57-15.28,36.11-19.57,55.14c-4.45,19.72-6,40.11-3.68,60.23c1.29,11.21,3.79,22.32,7.7,32.92
			c0.09,0.24,0.48,0.14,0.39-0.11c-6.4-19.09-8.86-39.21-7.87-59.29c0.98-19.96,5.29-39.65,11.86-58.5
			c3.61-10.37,8.02-20.41,12.82-30.27c0.47,0.01,0.6-0.5,0.4-0.83c0.02-0.03,0.03-0.06,0.04-0.09c0.01-0.02,0.02-0.04,0.02-0.06
			c0.03-0.03,0.06-0.06,0.1-0.1c2.14,1.24,4.1,2.67,5.95,4.22c-2.51,3.9-4.5,8.17-6.45,12.38c-1.99,4.31-3.8,8.7-5.48,13.15
			c-3.41,9-6.17,18.24-8.26,27.63c-4.16,18.63-5.66,37.92-4.46,56.96c0.67,10.63,1.95,21.5,4.82,31.79c0.11,0.4,0.67,0.23,0.6-0.17
			c-1.48-8.78-2.96-17.5-3.71-26.37c0.28,0.35,0.62,0.67,1.04,0.95c4.25,2.84,10.57-0.56,14.38-2.63
			c5.3-2.88,10.07-6.79,13.94-11.42c4.19-5.02,7.05-10.84,9.55-16.85c5.21-12.53,10.21-28.47,24.45-33.37
			c0.75-0.26,0.67-1.44-0.19-1.43c-11.76,0.24-22.98,4.46-33.45,9.51c-8.84,4.26-17.55,9.6-24,17.11c-2.5,2.91-4.5,6.08-5.99,9.54
			c0.03-0.56,0.07-1.13,0.1-1.69c1.25-18.91,5.2-37.66,11.6-55.5c1.79-4.99,3.8-9.88,5.98-14.71c2.11-4.67,4.59-9.17,6.76-13.81
			c3.6,3.19,6.84,6.79,10.33,10.21c5.84,5.74,12.63,10.1,20.56,12.34c15.51,4.39,32.34-0.03,43.86-11.26
			c2.79-2.72,6.38-6.32,6.73-10.43c0.06-0.71,0-1.36-0.15-1.93c3.89-0.28,8.48-2.13,10.11-5.91c0.99-2.3,0.01-4.57,0.34-6.94
			c0.31-2.27,1.77-4.17,3.22-5.86L202.72,121.18z M124.89,215.34c-2.56,6.07-4.74,12.33-7.92,18.12
			c-2.92,5.34-6.78,10.07-11.49,13.93c-2.36,1.94-4.92,3.63-7.61,5.07c-2.36,1.26-4.91,2.53-7.56,3.03
			c-2.37,0.45-5.71,0.25-6.23-2.69c-0.29-1.67,0.51-3.38,1.23-4.84c0.69-1.4,1.42-2.78,2.18-4.14
			c5.71-10.29,12.89-19.74,21.22-28.03c4.65-4.63,9.66-8.9,14.98-12.75c5.38-3.89,11.09-7.23,16.88-10.45
			c0.08-0.04,0.14-0.1,0.18-0.15c0.66-0.09,1.32-0.16,1.98-0.23C133.97,196.93,128.69,206.35,124.89,215.34L124.89,215.34z
			 M100.01,209.38c8.32-5.94,17.94-10.5,27.6-13.78c3.12-1.06,6.3-1.94,9.53-2.57c-9.97,5-19.13,11.97-27.18,19.6
			c-8.81,8.34-16.45,17.95-22.54,28.45c-1.48,2.55-3.06,5.17-4.17,7.91c-0.03,0.08-0.06,0.15-0.09,0.23
			c-0.32-6.49-0.32-12.99-0.04-19.49C86.3,221.33,92.8,214.53,100.01,209.38L100.01,209.38z M167.96,96.4
			c-1.61-1.73-3.86-2.73-5.37-4.57c-0.86-1.05-1.06-2.19-1.25-3.5c-0.08-0.6-0.21-1.19-0.45-1.73c0.22-0.05,0.42-0.19,0.53-0.44
			c1.29-3.08,3.02-6,5.11-8.61c1.79-2.23,4.17-5.17,6.98-6.09c4.58-1.5,7.86,4.45,11.33,6.36c0.93,0.51,1.9,0.83,2.95,0.97
			c1.77,0.22,3.22,0.22,4.31,1.81c1.25,1.83,1.68,4.16,3.32,5.74c2.08,1.99,5.13,1.82,7.44,3.36c1.33,0.89,2.61,2.55,1.41,4.08
			c-0.95,1.21-2.69,1.37-4.04,1.87c-2.54,0.93-4.82,2.64-5.21,5.48c-0.38,2.73,1.54,8.74-2.81,9.28c-0.18,0.02-0.27,0.15-0.28,0.27
			c-0.03-0.02-0.06-0.03-0.1-0.05c-3.6-1.68-8.17-1.09-11.18,1.5c0.43-1.16,0.79-2.34,1.06-3.58c0.53-2.36,1.71-7.07-1.19-8.44
			c-1.67-0.79-3.62,0.25-5.29,0.56c-1.76,0.31-3.56,0.34-5.35,0.33c0.25-1.69-0.77-3.37-1.92-4.61L167.96,96.4z M157.27,103.96
			c0.1,0,0.21-0.02,0.32-0.08c3.22-1.84,6.95-1.86,10.55-1.83c0.18,0,0.36,0,0.54,0c0.2,0.25,0.67,0.3,0.86,0
			c1.28,0,2.56-0.02,3.84-0.14c1.69-0.16,3.25-0.69,4.9-1c5.13-0.98,2.62,7.53,1.83,9.99c-1.24,3.91-3.44,7.17-5.52,10.65
			c-2,3.33-3.79,7.5-2.63,11.42c0.01,0.04,0.03,0.08,0.06,0.11c-1.63,1-3.32,1.92-5.08,2.69c-5.51,2.42-11.2,3.04-16.93,2.74
			c3.87-2.06,7.44-5.17,9.15-9.28c1.52-3.65,1.33-8.14-0.94-11.46c-1.17-1.71-2.72-2.63-4.47-3.64c-1.79-1.03-2.86-2.59-1.56-4.46
			C153.54,107.74,156.49,106.34,157.27,103.96L157.27,103.96z M150.24,100.42c1.8-0.14,4.94-0.51,5.92,1.48
			c1.25,2.54-3.04,5.02-4.38,6.62c-0.73,0.88-1.33,1.93-1.23,3.12c0.13,1.61,1.4,2.61,2.7,3.36c2.13,1.21,3.89,2.39,4.97,4.69
			c1,2.12,1.26,4.59,0.84,6.89c-0.98,5.34-5.34,9.17-9.82,11.74c-0.07,0.04-0.11,0.09-0.13,0.15c-8.56-0.58-17.21-3.1-25.52-4.58
			c-7.17-1.28-14.58-1.9-21.69-0.1c2.04-3.92,0.79-9.4-2.92-11.96c-1.49-1.02-3.28-1.05-4.84-1.88c-1.94-1.03-1.65-3.16-1.27-4.97
			c0.63-2.98,1.25-6.07-1.21-8.23c1.18-3.78,4.03-6.51,7.37-8.55c3.43-2.09,7.45-3.92,11.36-4.86c2.08-0.5,4.82-0.66,6.02,1.52
			c1.05,1.9,0.5,4.31,1.17,6.34c1.24,3.8,5.59,5.13,9.21,4.68c2.65-0.33,5.12-1.38,7.63-2.23c2.47-0.83,4.98-1.53,7.53-2.06
			C144.7,101.03,147.45,100.63,150.24,100.42L150.24,100.42z M133.28,90.12c1,0.61,2.27,0.46,3.38,0.43c1.7-0.04,3.42,0.15,5,0.81
			c3.03,1.29,5.22,4.98,3.29,8.07c-0.1,0.16-0.1,0.31-0.04,0.44c-4.41,0.71-8.71,1.88-12.95,3.38c-2.65,0.94-5.52,1.94-8.36,1.37
			c-2.4-0.48-4.48-1.96-5.01-4.45c-0.46-2.12-0.06-4.5-1.4-6.36c-1.1-1.53-2.92-2.06-4.73-1.97c-2.4,0.11-4.69,1.04-6.9,1.92
			c-2.23,0.88-4.43,1.86-6.51,3.06c-3.68,2.14-6.98,5.15-8.3,9.25c-1.35-0.82-2.92-1.18-4.5-1.24c-2.31-0.09-4.66,0.58-6.96,0.34
			c-0.97-0.1-1.51-0.51-1.46-1.6c0.02-0.53,0.17-1.06,0.31-1.58c0.21-0.77,0.49-1.52,0.78-2.27c5.39-1.4,10.02-4.7,13.86-8.67
			c2.2-2.27,4.44-4.69,7.37-6c3.12-1.39,5.99-0.83,8.86,0.81c2.14,1.23,4.23,2.82,6.71,3.32c2.53,0.51,4.74-0.45,6.84-1.78
			c2.17-1.36,4.31-2.95,7.03-2.42c0.74,0.15,1.47,0.46,1.96,1.01c0.03,0.1,0.1,0.18,0.18,0.24c0.13,0.2,0.24,0.42,0.31,0.67
			C132.36,88.12,132.02,89.35,133.28,90.12L133.28,90.12z M91.61,53.36c1.81-0.71,3.77-1.62,5.71-1.92c3-0.47,3.42,2.49,2.76,4.7
			c-1.2,3.98-4.98,6.41-7.69,9.3c-0.23,0.24-0.45,0.49-0.67,0.75c-0.04,0.02-0.09,0.05-0.13,0.07c-0.06,0.03-0.06,0.09-0.04,0.14
			c-1.92,2.32-3.3,5.22-1.42,8.03c1.22,1.82,3.04,3.14,4.28,4.95c1.4,2.05,2.06,4.65,0.76,6.92c-0.15,0.25,0.22,0.45,0.38,0.23
			c2.45-3.4,0.15-7.4-2.25-10.08c-1.6-1.77-3.69-3.56-2.79-6.21c0.62-1.81,1.96-3.34,3.35-4.69c3.59-1.4,7.53-2.26,10.92,0.02
			c2.79,1.87,5.08,4.27,8.7,3.23c1.61-0.46,3.56-1.73,5.29-1.29c1.81,0.47,2,2.48,2.08,4.03c0.16,2.92,0.46,5.9,3.89,6.53
			c2.09,0.38,4.15,0.17,5.73,1.85c1.21,1.29,1.72,3.08,1.38,4.77c-1.25-0.93-3.06-1.1-4.56-0.87c-2.77,0.43-4.8,2.55-7.27,3.69
			c-3.05,1.41-5.8,0.14-8.47-1.46c-2.28-1.37-4.62-2.9-7.36-3c-3.05-0.11-5.89,1.47-8.15,3.4c-2.98,2.54-5.27,5.76-8.45,8.1
			c-2.55,1.88-5.35,3.22-8.31,4.25c0.02-0.04,0.03-0.08,0.05-0.12c0.73-1.83,1.42-3.67,1.48-5.66c0.05-1.56-0.27-3.19-1.23-4.45
			c-1.24-1.65-3.5-2.09-4.52-3.94c-1.85-3.34,0.31-7.63,2.18-10.44c2.35-3.51,5.4-7.57,4.1-12.05c-0.29-1.02-0.75-2.02-1.26-2.98
			C83.74,56.91,87.59,54.95,91.61,53.36L91.61,53.36z M45.39,106.09c-4.17-6.62-5.04-14.69-4.6-22.35
			c0.49-8.51,2.65-16.83,4.09-25.21c0.34-2,0.64-4.01,0.87-6.02c0.15-1.33,0.19-4.12,1.92-4.46c1.94-0.38,3,3.14,3.97,4.31
			c0.71,0.85,1.62,1.4,2.76,1.31c0.75-0.06,1.44-0.39,2.14-0.65c0.35-0.13,0.72-0.29,1.1-0.32c0.85-0.06,1.15,0.53,1.48,1.23
			c0.64,1.36,1.68,1.89,3.15,1.99c1.53,0.11,4.91-0.49,5.13,1.81c0.03,0.28,0.37,0.33,0.48,0.13C62.21,69.61,57.31,81.78,56.87,95
			c-0.25,7.43,1.15,15.04,4.34,21.7C54.57,116.03,48.88,111.63,45.39,106.09L45.39,106.09z M100.51,134.18
			c-0.12,0.04-0.23,0.07-0.35,0.1c-0.22,0.07-0.34,0.22-0.4,0.39c-0.26-0.03-0.52,0.07-0.68,0.39c-0.08,0.16-0.16,0.33-0.24,0.49
			c-7.42-0.63-14.95-0.19-21.81-3.63c-5.86-2.94-10.6-7.82-13.85-13.47c-7.89-13.74-6.02-30.62-0.96-44.98
			c2.95-8.36,6.96-16.3,11.08-24.13c2.11,3.81,4.41,7.56,6.3,11.48c2.2,4.56-0.48,8.54-3.01,12.28c-1.85,2.73-3.55,5.89-3.31,9.31
			c0.1,1.39,0.56,2.74,1.5,3.79c1.33,1.49,3.47,1.94,4.36,3.86c1.4,3.04-0.07,6.2-1.27,9.2c-0.16,0.05-0.32,0.1-0.48,0.15
			c-0.4,0.12-0.23,0.7,0.17,0.63c0,0,0,0,0.01,0c-0.24,0.63-0.45,1.25-0.61,1.87c-0.38,1.47-0.67,3.3,0.96,4.11
			c1.61,0.8,3.91,0.22,5.6,0.08c2.15-0.18,4.39-0.24,6.34,0.81c0.21,0.12,0.41,0.24,0.6,0.38c0.05,0.25,0.28,0.42,0.52,0.43
			c1.05,1,1.5,2.36,1.35,3.95c-0.27,2.74-2.13,6.31,0.22,8.65c1.39,1.38,3.47,1.3,5.12,2.16c1.46,0.76,2.57,2.07,3.25,3.56
			C102.09,128.6,102.05,131.81,100.51,134.18L100.51,134.18z M187.79,143.19c-1.14,3.64-4.27,6.74-7,9.28
			c-5.46,5.06-12.23,8.71-19.45,10.51c-7.5,1.88-15.43,1.65-22.85-0.5c-7.62-2.21-14.14-6.43-19.8-11.92
			c-3.48-3.38-6.83-7.18-10.59-10.4c0.21-0.7-0.54-1.25-1.09-0.91c-1.87-1.51-3.85-2.86-6-3.92c13.08-3.86,26.64,0.98,39.56,3.29
			c6.4,1.14,12.99,1.79,19.43,0.61c6.98-1.29,13.05-4.96,18.59-9.25c1.63-1.26,3.21-2.56,4.78-3.88c1.39-1.16,3.63-3.46,5.61-2.16
			c2.29,1.51-1.79,4.81-2.84,5.94l-4.92,5.3c-0.27,0.29-0.19,0.86,0.25,0.95c1.63,0.33,3.34,0.69,4.73,1.64
			C188.04,139,188.43,141.14,187.79,143.19L187.79,143.19z M198.93,125.16c-0.71,1.9-0.41,3.67-0.29,5.64
			c0.15,2.44-1.04,4.5-3.03,5.88c-2.05,1.42-4.47,1.75-6.76,2.58c-0.98-2.28-3.6-3.41-6.15-4.04c1.31-1.4,2.61-2.8,3.92-4.2
			c1.29-1.38,3.01-2.77,3.88-4.48c1.45-2.82-1.75-4.75-4.23-3.86c-1.61,0.58-2.92,1.91-4.21,2.99c-1.6,1.32-3.21,2.63-4.86,3.88
			c-1.5,1.14-3.05,2.23-4.65,3.24c-0.81-4.79,1.56-8.79,4.04-12.7c1.26-1.98,2.4-3.99,3.32-6.09c0.23,0.18,0.57,0.21,0.86-0.06
			c2.67-2.54,6.54-3.58,10.05-2.24c1.83,0.7,3.33,2.03,5.31,2.39c1.86,0.33,3.74-0.19,5.58-0.45c0.92-0.13,2.31-0.37,3.2,0.02
			c1.71,0.75,0.83,2.36,0,3.43c-1.09,1.42-2.36,2.69-3.5,4.08C200.42,122.39,199.49,123.68,198.93,125.16L198.93,125.16z"/>
		<path class="st0" d="M108.76,102.53c-0.29-0.05-0.42,0.38-0.13,0.45c1.4,0.33,0.62,2.75,0.44,3.63c-0.25,1.25-0.55,2.5-0.89,3.73
			c-0.67,2.47-1.74,4.81-2.42,7.27c-0.08,0.29,0.33,0.46,0.48,0.21c1.72-2.84,2.57-6.48,3.23-9.69
			C109.76,106.83,110.97,102.92,108.76,102.53L108.76,102.53z"/>
		<path class="st0" d="M121.84,110.57c-0.75,2.4-1.85,4.68-3.28,6.75c-1.46,2.1-3.32,3.7-5.07,5.53c-0.21,0.22,0.06,0.58,0.33,0.42
			c2.15-1.27,3.85-3.4,5.25-5.43c1.5-2.18,2.63-4.57,3.4-7.1C122.59,110.34,121.97,110.17,121.84,110.57L121.84,110.57z"/>
		<path class="st0" d="M135.53,111.5c-1.18,2.86-2.94,5.42-5.19,7.55c-2.2,2.08-4.76,3.42-7.4,4.84c-0.27,0.15-0.08,0.57,0.21,0.49
			c5.92-1.54,10.65-7.27,12.75-12.78C135.99,111.36,135.63,111.27,135.53,111.5L135.53,111.5z"/>
		<path class="st0" d="M145.49,120.74c-3.66,3.89-8.13,5.87-13.16,7.39c-0.35,0.1-0.3,0.7,0.09,0.67c5.23-0.48,10.15-3.7,13.59-7.53
			C146.33,120.91,145.82,120.39,145.49,120.74z"/>
		<path class="st0" d="M84.86,125.21c-1.83-3.72-2.95-7.39-2.24-11.58c0.06-0.38-0.5-0.54-0.58-0.16
			c-0.79,4.03-0.23,8.76,2.41,12.05C84.65,125.77,84.99,125.46,84.86,125.21z"/>
		<path class="st0" d="M75.37,123.8c-1.46-2.63-3-5.21-4.15-7.99c-1.11-2.7-1.93-5.52-2.45-8.4c-1.08-5.97-0.79-12.08,0.77-17.93
			c0.09-0.34-0.43-0.48-0.53-0.15c-1.82,5.85-2.18,12.1-1.21,18.14c0.94,5.86,3.08,12.21,7.05,16.73
			C75.1,124.5,75.55,124.13,75.37,123.8L75.37,123.8z"/>
		<path class="st0" d="M71.95,62.51c-3.73,4.04-5.91,9.01-6.08,14.51c-0.01,0.32,0.46,0.31,0.49,0c0.6-5.1,2.68-10.16,6.03-14.06
			C72.65,62.65,72.22,62.21,71.95,62.51z"/>
		<path class="st0" d="M53.32,63.1c-7.48,13.92-5.12,30.31-0.23,44.65c0.12,0.35,0.67,0.21,0.57-0.16
			c-3.85-14.34-7.11-30.34,0.19-44.18C54.03,63.06,53.51,62.76,53.32,63.1z"/>
		<path class="st0" d="M85.71,76.27c-1.69,1.97-3.58,4.45-4.01,7.08c-0.06,0.35,0.39,0.58,0.59,0.25c0.69-1.13,1.15-2.4,1.79-3.56
			c0.65-1.17,1.35-2.29,2.15-3.37C86.44,76.37,85.95,75.99,85.71,76.27z"/>
		<path class="st0" d="M102.35,71.47c-0.47,2.27-1.68,3.94-2.81,5.89c-0.14,0.24,0.15,0.57,0.4,0.4c1.9-1.34,2.86-3.84,3.26-6.05
			C103.3,71.15,102.46,70.91,102.35,71.47L102.35,71.47z"/>
		<path class="st0" d="M113.24,75.15c-1.57,1.94-3.48,3.4-5.27,5.11c-0.29,0.27,0.08,0.66,0.4,0.52c2.26-1.01,4.11-2.96,5.63-4.86
			C114.43,75.38,113.68,74.61,113.24,75.15z"/>
		<path class="st0" d="M128.42,92.53c-1.31,2.84-3.22,5.16-5.11,7.62c-0.18,0.23,0.17,0.57,0.4,0.4c2.58-1.83,4.34-4.65,5.64-7.47
			C129.64,92.45,128.71,91.9,128.42,92.53L128.42,92.53z"/>
		<path class="st0" d="M135.6,94.84c-1.98,1.14-4.39,2.64-5.5,4.72c-0.17,0.32,0.19,0.75,0.53,0.53c0.91-0.59,1.67-1.4,2.5-2.09
			c0.96-0.8,1.95-1.55,3.01-2.22C136.73,95.4,136.2,94.49,135.6,94.84L135.6,94.84z"/>
		<path class="st0" d="M169.84,142.24c-6.27,2.41-12.58,4.83-19.18,6.17c-6.74,1.37-13.6,1.33-20.24-0.52
			c-0.25-0.07-0.34,0.29-0.1,0.38c13.07,5.01,27.47-0.64,39.69-5.45C170.36,142.68,170.21,142.1,169.84,142.24L169.84,142.24z"/>
		<path class="st0" d="M168.45,151.1c-4.46,2.32-9.23,4.03-14.14,5.1c-4.98,1.08-9.91,1.13-14.97,1.36
			c-0.33,0.02-0.45,0.56-0.08,0.62c4.94,0.78,10.23,0.08,15.09-0.99c5.07-1.11,9.92-2.96,14.48-5.43
			C169.26,151.53,168.88,150.88,168.45,151.1L168.45,151.1z"/>
		<path class="st0" d="M165.65,106.95c-0.8,1.31-1.66,2.59-2.58,3.81c-0.9,1.2-2.05,2.32-2.76,3.65c-0.13,0.25,0.15,0.58,0.41,0.41
			c1.2-0.8,2.09-2.06,2.94-3.21c1-1.35,1.92-2.76,2.77-4.21C166.73,106.9,165.95,106.45,165.65,106.95L165.65,106.95z"/>
		<path class="st0" d="M170.81,112.22c-1.29,2.13-2.74,4.15-4.38,6.03c-1.49,1.71-3.4,3.18-4.69,5.04
			c-0.25,0.35,0.22,0.69,0.54,0.54c2.14-1,3.91-3.15,5.42-4.92c1.61-1.88,3.04-3.88,4.32-5.99
			C172.5,112.15,171.28,111.44,170.81,112.22z"/>
		<path class="st0" d="M187.92,116.22c-1.51,1.65-3.34,2.89-5.27,3.99c-0.29,0.17-0.1,0.65,0.23,0.55c2.27-0.71,4.14-2.1,5.73-3.85
			C189.03,116.44,188.35,115.75,187.92,116.22L187.92,116.22z"/>
		<path class="st0" d="M181,83.11c-3.09,2.76-6.56,5.38-9.27,8.52c-0.2,0.23,0.06,0.64,0.35,0.45c3.45-2.36,6.47-5.52,9.58-8.31
			C182.1,83.36,181.45,82.71,181,83.11L181,83.11z"/>
		<path class="st0" d="M186.05,88.98c-1.96,1.5-4.16,2.91-5.84,4.72c-0.23,0.25,0.06,0.63,0.36,0.47c2.18-1.17,4.09-2.95,6.04-4.46
			C187.02,89.39,186.46,88.66,186.05,88.98L186.05,88.98z"/>
		<path class="st0" d="M190.41,93.51c-1.13,1.01-2.26,2.02-3.34,3.09c-0.26,0.26,0.09,0.77,0.41,0.53c1.25-0.92,2.45-1.91,3.65-2.9
			C191.63,93.82,190.9,93.08,190.41,93.51L190.41,93.51z"/>
		<path class="st0" d="M143.5,76.36c-1.23,2.35-2.87,4.3-4.36,6.47c-0.15,0.22,0.17,0.42,0.35,0.27c1.98-1.67,3.41-4.13,4.59-6.41
			C144.26,76.32,143.7,75.99,143.5,76.36L143.5,76.36z"/>
		<path class="st0" d="M147.79,85.97c-0.68,0.67-1.59,1.34-1.96,2.25c-0.1,0.25,0.2,0.54,0.44,0.44c0.91-0.34,1.61-1.24,2.31-1.9
			C149.1,86.27,148.31,85.47,147.79,85.97L147.79,85.97z"/>
		<path class="st0" d="M156.14,91.06c-0.15-0.25-0.54-0.4-0.79-0.21c-0.48,0.35-0.96,0.71-1.44,1.07c-0.49,0.36-0.06,1.17,0.49,0.84
			c0.51-0.3,1.02-0.6,1.53-0.91C156.2,91.69,156.3,91.33,156.14,91.06L156.14,91.06z"/>
		<path class="st0" d="M113.25,49.33c-0.06-0.59-0.99-0.6-0.94,0c0.21,2.25,0.13,4.51-0.33,6.73c-0.44,2.13-1.41,4.02-2.04,6.09
			c-0.08,0.28,0.32,0.56,0.52,0.31c1.34-1.69,1.99-4.06,2.42-6.15C113.36,54.01,113.47,51.67,113.25,49.33L113.25,49.33z"/>
		<path class="st0" d="M128.01,49.72c-0.37,1.95-0.82,3.88-1.39,5.79c-0.56,1.89-1.38,3.74-1.83,5.65c-0.07,0.31,0.35,0.5,0.52,0.22
			c1-1.63,1.58-3.59,2.13-5.41c0.59-1.98,1.06-3.98,1.43-6.01C128.97,49.4,128.12,49.15,128.01,49.72L128.01,49.72z"/>
		<path class="st0" d="M137.09,54.57c-0.79,1.99-2.09,3.59-3.03,5.47c-0.18,0.36,0.21,0.86,0.6,0.6c1.88-1.25,3.06-3.64,3.87-5.67
			C138.89,54.07,137.44,53.68,137.09,54.57L137.09,54.57z"/>
		<path class="st0" d="M161.55,69.31c-0.55,0.72-1.23,1.28-1.98,1.78c-0.58,0.38-1.44,0.62-1.81,1.23c-0.1,0.17-0.05,0.45,0.14,0.54
			c0.82,0.38,1.9-0.21,2.61-0.67c0.87-0.57,1.58-1.37,2.15-2.23C163.11,69.26,162.03,68.68,161.55,69.31L161.55,69.31z"/>
		<path class="st0" d="M147.99,57.73c-0.29-0.17-0.59-0.04-0.77,0.2c-0.49,0.66-1.02,1.29-1.38,2.04c-0.21,0.45,0.3,0.87,0.69,0.53
			c0.65-0.57,1.14-1.31,1.66-2C148.37,58.26,148.22,57.87,147.99,57.73L147.99,57.73z"/>
	</g>
</g>
</svg>
