<?xml version="1.0" encoding="UTF-8"?>
<svg id="Layer_2" data-name="Layer 2" xmlns="http://www.w3.org/2000/svg" viewBox="0 0 106.41 106.41">
  <defs>
    <style>
      .cls-1 {
        fill: none;
        stroke: #231f20;
        stroke-miterlimit: 10;
        stroke-width: 6px;
      }
    </style>
  </defs>
  <g id="Layer_1-2" data-name="Layer 1">
    <g>
      <circle class="cls-1" cx="53.21" cy="52.91" r="9.43" transform="translate(-10.51 92.53) rotate(-76.72)"/>
      <path class="cls-1" d="m103.41,53.21c0-7.75-9.67-8.37-14.31-8.22-2.36.08-4.52.21-6.59.36,1.88-.9,3.81-1.87,5.89-2.98,4.1-2.19,12.16-7.56,8.29-14.27-3.88-6.71-12.56-2.41-16.5.04-2,1.24-3.81,2.44-5.53,3.61,1.17-1.72,2.37-3.53,3.61-5.53,2.45-3.95,6.75-12.63.04-16.5-6.71-3.88-12.08,4.19-14.27,8.29-1.11,2.08-2.08,4.02-2.98,5.89.16-2.08.29-4.24.36-6.59.15-4.64-.46-14.31-8.22-14.31s-8.37,9.67-8.22,14.31c.08,2.36.21,4.52.36,6.59-.9-1.88-1.87-3.81-2.98-5.89-2.19-4.1-7.56-12.16-14.27-8.29-6.71,3.88-2.41,12.56.04,16.5,1.24,2,2.44,3.81,3.61,5.53-1.72-1.17-3.53-2.37-5.53-3.61-3.95-2.45-12.63-6.75-16.5-.04-3.88,6.71,4.19,12.08,8.29,14.27,2.08,1.11,4.02,2.08,5.89,2.98-2.08-.15-4.24-.29-6.59-.36-4.64-.15-14.31.46-14.31,8.22s9.67,8.37,14.31,8.22c2.36-.08,4.52-.21,6.59-.36-1.87.9-3.81,1.87-5.89,2.98-4.1,2.19-12.16,7.56-8.29,14.27,3.88,6.71,12.56,2.41,16.5-.04,2-1.24,3.81-2.44,5.53-3.61-1.17,1.72-2.37,3.52-3.61,5.53-2.45,3.95-6.75,12.63-.04,16.5,6.71,3.88,12.08-4.19,14.27-8.29,1.11-2.08,2.08-4.02,2.98-5.89-.16,2.08-.29,4.24-.36,6.59-.15,4.64.46,14.31,8.22,14.31s8.37-9.67,8.22-14.31c-.08-2.36-.21-4.52-.36-6.59.9,1.87,1.87,3.81,2.98,5.89,2.19,4.1,7.56,12.16,14.27,8.29,6.71-3.88,2.41-12.56-.04-16.5-1.24-2-2.44-3.81-3.61-5.53,1.72,1.17,3.53,2.37,5.53,3.61,3.95,2.45,12.63,6.75,16.5.04,3.88-6.71-4.19-12.08-8.29-14.27-2.08-1.11-4.02-2.08-5.89-2.98,2.08.16,4.24.29,6.59.36,4.64.15,14.31-.46,14.31-8.22Z"/>
    </g>
  </g>
</svg>